# xmcd
#
# Track frame offsets: 
#        150
#        32561
#        54925
#        84126
#        106625
#        143267
#        166708
#        189910
#        213929
#        237011
#
# Disc length: 3455 seconds
#
# Revision: 1
# Processed by: cddbd v1.5.2PL0 Copyright (c) Steve Scherf et al.
# Submitted via: ExactAudioCopy v1.0b3
#
DISCID=600d7d0a
DTITLE=Truong Vu - Mot Thuo Dam Me
DYEAR=2005
DGENRE=
TTITLE0=Ban
TTITLE1=Chieu tren doi thong
TTITLE2=Hanh phuc thuong dau
TTITLE3=Hen ngay em ve
TTITLE4=Loi hua anh dao
TTITLE5=Mot nguoi len xe hoa
TTITLE6=Mot thuo dam me
TTITLE7=Nguoi ban tinh xua
TTITLE8=Sau lung ky niem
TTITLE9=Rung an ai
EXTD=
EXTT0=
EXTT1=
EXTT2=
EXTT3=
EXTT4=
EXTT5=
EXTT6=
EXTT7=
EXTT8=
EXTT9=
PLAYORDER=
